#N canvas 366 51 675 500 10;
#X obj 147 5 bng 15 250 50 0 empty empty empty 17 7 0 10 -262144 -1
-1;
#X obj 147 25 openpanel;
#N canvas 0 0 450 300 (subpatch) 0;
#X array channelR 8.35489e+06 float 2;
#X coords 0 1 8.35489e+06 -1 200 50 1 0 0;
#X restore 453 74 graph;
#N canvas 0 0 450 300 (subpatch) 0;
#X array channelL 8.35489e+06 float 2;
#X coords 0 1 8.35489e+06 -1 200 50 1 0 0;
#X restore 453 8 graph;
#X obj 147 68 soundfiler;
#X msg 147 46 read -resize -maxsize 1e+15 \$1 channelL channelR;
#X floatatom 168 88 15 0 0 0 - - -;
#X obj 170 103 s sampleSize;
#X floatatom 154 195 10 0 0 0 - - -;
#X obj 147 221 phasor~;
#X obj 147 264 *~;
#X obj 147 365 tabread4~ channelL;
#X obj 159 385 tabread4~ channelR;
#X obj 168 468 dac~;
#X obj 169 242 r sampleSize;
#X msg 108 167 0;
#X obj 153 173 /;
#X msg 126 136 44100;
#X obj 37 25 r ctl-loadclip;
#X obj 48 138 r ctl-pause;
#X obj 57 104 r ctl-resume;
#X msg 269 192 0;
#X obj 269 104 r ctl-play;
#X obj 200 137 r ctl-stop;
#X connect 0 0 1 0;
#X connect 1 0 5 0;
#X connect 4 0 6 0;
#X connect 5 0 4 0;
#X connect 6 0 7 0;
#X connect 6 0 16 1;
#X connect 8 0 9 0;
#X connect 9 0 10 0;
#X connect 10 0 11 0;
#X connect 10 0 12 0;
#X connect 11 0 13 0;
#X connect 12 0 13 1;
#X connect 14 0 10 1;
#X connect 15 0 9 0;
#X connect 16 0 8 0;
#X connect 17 0 16 0;
#X connect 18 0 5 0;
#X connect 19 0 15 0;
#X connect 20 0 17 0;
#X connect 21 0 9 1;
#X connect 22 0 21 0;
#X connect 22 0 17 0;
#X connect 23 0 21 0;
#X connect 23 0 15 0;
