#N canvas 777 51 583 589 10;
#N canvas 0 0 450 300 (subpatch) 0;
#X array clip01R 8.35489e+06 float 2;
#X coords 0 1 8.35489e+06 -1 200 25 1;
#X restore 66 -12 graph;
#N canvas 0 0 450 300 (subpatch) 0;
#X array clip01L 8.35489e+06 float 2;
#X coords 0 1 8.35489e+06 -1 200 25 1;
#X restore 66 -52 graph;
#X obj 315 306 *~;
#X obj 171 472 dac~;
#X obj 375 302 tgl 15 0 empty empty empty 17 7 0 10 -262144 -1 -1 0
1;
#X obj 375 324 metro 50;
#X obj 376 344 snapshot~;
#X floatatom 375 364 5 0 0 0 - - -;
#X obj 346 392 /;
#X floatatom 372 411 5 0 0 0 - - -;
#X obj 349 433 hsl 200 15 0 1 0 0 empty empty empty -2 -8 0 10 -262144
-1 -1 0 1;
#X msg 173 89 0;
#X obj 134 89 bng 15 250 50 0 empty empty empty 17 7 0 10 -262144 -1
-1;
#X obj 347 464 s seek;
#X obj 353 200 r seek;
#X floatatom 311 194 5 0 0 0 - - -;
#X obj 216 87 bng 15 250 50 0 empty empty empty 17 7 0 10 -262144 -1
-1;
#X obj 232 196 t b b;
#X msg 256 235 0;
#X text 219 74 stop;
#X text 176 75 pause;
#X text 140 74 resume;
#X obj 98 104 bng 15 250 50 0 empty empty empty 17 7 0 10 -262144 -1
-1;
#X obj 96 123 t b b;
#X text 99 89 play;
#X msg 77 378 set \$1;
#X obj 170 421 tabread4~;
#X obj 193 441 tabread4~;
#X msg 135 369 set \$1;
#X obj 41 143 unpack s s f;
#X obj 308 56 unpack s s;
#X obj 339 139 s sampleSize;
#X obj 256 167 expr 44100 / $f1;
#X obj 50 82 t b l;
#X obj 309 230 phasor~;
#X text 302 -67 load;
#X obj 307 -48 bng 15 250 50 0 empty empty empty 17 7 0 10 -262144
-1 -1;
#X msg 342 -69 /home/kris/src/pd/Lemonade.aif;
#X obj 380 -93 r load-file;
#X obj 282 -39 bng 15 250 50 0 empty empty empty 17 7 0 10 -262144
-1 -1;
#X text 270 -53 play;
#X connect 2 0 6 0;
#X connect 2 0 26 0;
#X connect 2 0 27 0;
#X connect 4 0 5 0;
#X connect 5 0 6 0;
#X connect 6 0 7 0;
#X connect 7 0 8 0;
#X connect 8 0 9 0;
#X connect 9 0 10 0;
#X connect 10 0 13 0;
#X connect 11 0 34 0;
#X connect 12 0 15 0;
#X connect 14 0 34 1;
#X connect 15 0 34 0;
#X connect 16 0 17 0;
#X connect 17 0 11 0;
#X connect 17 1 18 0;
#X connect 18 0 34 1;
#X connect 22 0 23 0;
#X connect 23 0 12 0;
#X connect 23 1 18 0;
#X connect 25 0 26 0;
#X connect 26 0 3 0;
#X connect 27 0 3 1;
#X connect 28 0 27 0;
#X connect 29 0 25 0;
#X connect 29 1 28 0;
#X connect 29 2 32 0;
#X connect 29 2 2 1;
#X connect 29 2 8 1;
#X connect 32 0 15 0;
#X connect 33 0 22 0;
#X connect 33 1 29 0;
#X connect 34 0 2 0;
#X connect 37 0 36 0;
#X connect 38 0 36 0;
