#N canvas 777 51 583 589 10;
#N canvas 0 0 450 300 (subpatch) 0;
#X array clip01R 8.35489e+06 float 2;
#X coords 0 1 8.35489e+06 -1 200 25 1;
#X restore 66 -12 graph;
#N canvas 0 0 450 300 (subpatch) 0;
#X array clip01L 8.35489e+06 float 2;
#X coords 0 1 8.35489e+06 -1 200 25 1;
#X restore 66 -52 graph;
#X obj 315 306 *~;
#X obj 171 472 dac~;
#X obj 375 302 tgl 15 0 empty empty empty 17 7 0 10 -262144 -1 -1 0
1;
#X obj 375 324 metro 50;
#X obj 376 344 snapshot~;
#X floatatom 375 364 5 0 0 0 - - -;
#X obj 346 392 /;
#X floatatom 372 411 5 0 0 0 - - -;
#X obj 349 433 hsl 200 15 0 1 0 0 empty empty empty -2 -8 0 10 -262144
-1 -1 0 1;
#X msg 173 89 0;
#X obj 134 89 bng 15 250 50 0 empty empty empty 17 7 0 10 -262144 -1
-1;
#X obj 347 464 s seek;
#X obj 353 200 r seek;
#X floatatom 311 194 5 0 0 0 - - -;
#X obj 216 87 bng 15 250 50 0 empty empty empty 17 7 0 10 -262144 -1
-1;
#X obj 232 196 t b b;
#X msg 256 235 0;
#X text 219 74 stop;
#X text 176 75 pause;
#X text 140 74 resume;
#X obj 98 104 bng 15 250 50 0 empty empty empty 17 7 0 10 -262144 -1
-1;
#X obj 96 123 t b b;
#X text 99 89 play;
#X msg 77 378 set \$1;
#X obj 170 421 tabread4~;
#X obj 193 441 tabread4~;
#X msg 135 369 set \$1;
#N canvas 58 238 450 300 load-clip 0;
#X obj 102 232 outlet;
#X obj 84 36 openpanel;
#X obj 79 16 bng 15 250 50 0 empty empty empty 17 7 0 10 -262144 -1
-1;
#X obj 84 131 soundfiler;
#X obj 216 -7 inlet;
#X obj 277 -9 inlet;
#X obj 99 68 pack s s s;
#X msg 84 111 read -resize -maxsize 1e+15 \$1 \$2 \$3;
#X obj 15 -10 inlet;
#X obj 18 38 print;
#X obj 275 48 bng 15 250 50 0 empty empty empty 17 7 0 10 -262144 -1
-1;
#X obj 290 24 bng 15 250 50 0 empty empty empty 17 7 0 10 -262144 -1
-1;
#X obj 194 84 print;
#X connect 1 0 6 0;
#X connect 2 0 1 0;
#X connect 3 0 0 0;
#X connect 4 0 6 1;
#X connect 4 0 10 0;
#X connect 5 0 6 2;
#X connect 5 0 11 0;
#X connect 6 0 7 0;
#X connect 6 0 12 0;
#X connect 7 0 3 0;
#X connect 8 0 6 0;
#X connect 8 0 9 0;
#X restore 287 97 pd load-clip;
#X obj 41 143 unpack s s f;
#X obj 308 56 unpack s s;
#X obj 339 139 s sampleSize;
#X obj 256 167 expr 44100 / $f1;
#X obj 50 82 t b l;
#X obj 309 230 phasor~;
#N canvas 717 159 345 364 clip 1;
#X floatatom 131 120 12 0 0 0 - - -;
#X msg 99 167 list clip01L clip01R \$1;
#X msg 205 51 list clip01L clip01R;
#X obj 112 61 r sampleSize;
#X obj 117 143 spigot;
#X obj 38 123 tgl 15 0 empty empty empty 17 7 0 10 -262144 -1 -1 1
1;
#X msg 73 79 1;
#X obj 91 31 t b f f;
#X msg 33 186 0;
#X obj 72 -10 inlet;
#X obj 191 -11 inlet;
#X text 68 -24 play;
#X text 193 -26 load;
#X obj 203 223 outlet;
#X obj 11 -9 inlet;
#X obj 31 219 outlet;
#X text 32 233 off;
#X text 13 -22 off;
#X msg 14 70 0;
#X obj 258 223 outlet;
#X text 257 239 isOn;
#X obj 145 96 spigot;
#X obj 231 129 tgl 15 0 empty empty empty 17 7 0 10 -262144 -1 -1 0
1;
#X msg 242 103 1;
#X obj 184 203 t b l b;
#X obj 237 79 t l b;
#X obj 99 221 outlet;
#X msg 67 173 0;
#X text 94 239 setup-n-play;
#X text 210 239 load;
#X connect 0 0 4 0;
#X connect 0 0 27 0;
#X connect 1 0 26 0;
#X connect 2 0 25 0;
#X connect 3 0 21 0;
#X connect 4 0 1 0;
#X connect 5 0 4 1;
#X connect 5 0 19 0;
#X connect 6 0 5 0;
#X connect 7 0 0 0;
#X connect 7 1 6 0;
#X connect 7 2 8 0;
#X connect 8 0 15 0;
#X connect 9 0 7 0;
#X connect 10 0 2 0;
#X connect 14 0 18 0;
#X connect 18 0 5 0;
#X connect 21 0 0 0;
#X connect 22 0 21 1;
#X connect 23 0 22 0;
#X connect 24 1 13 0;
#X connect 25 0 24 0;
#X connect 25 1 23 0;
#X connect 27 0 22 0;
#X restore 365 -14 pd clip;
#X text 302 -67 load;
#X obj 307 -48 bng 15 250 50 0 empty empty empty 17 7 0 10 -262144
-1 -1;
#X msg 342 -69 /home/kris/src/pd/Lemonade.aif;
#X obj 380 -93 r load-file;
#X obj 282 -39 bng 15 250 50 0 empty empty empty 17 7 0 10 -262144
-1 -1;
#X text 270 -53 play;
#X connect 2 0 6 0;
#X connect 2 0 26 0;
#X connect 2 0 27 0;
#X connect 4 0 5 0;
#X connect 5 0 6 0;
#X connect 6 0 7 0;
#X connect 7 0 8 0;
#X connect 8 0 9 0;
#X connect 9 0 10 0;
#X connect 10 0 13 0;
#X connect 11 0 35 0;
#X connect 12 0 15 0;
#X connect 14 0 35 1;
#X connect 15 0 35 0;
#X connect 16 0 17 0;
#X connect 17 0 11 0;
#X connect 17 1 18 0;
#X connect 18 0 35 1;
#X connect 22 0 23 0;
#X connect 23 0 12 0;
#X connect 23 1 18 0;
#X connect 25 0 26 0;
#X connect 26 0 3 0;
#X connect 27 0 3 1;
#X connect 28 0 27 0;
#X connect 29 0 11 0;
#X connect 29 0 32 0;
#X connect 30 0 25 0;
#X connect 30 1 28 0;
#X connect 30 2 33 0;
#X connect 30 2 2 1;
#X connect 30 2 8 1;
#X connect 31 0 29 1;
#X connect 31 1 29 2;
#X connect 33 0 15 0;
#X connect 34 0 22 0;
#X connect 34 1 30 0;
#X connect 35 0 2 0;
#X connect 36 1 34 0;
#X connect 36 2 31 0;
#X connect 38 0 36 2;
#X connect 39 0 38 0;
#X connect 39 0 29 0;
#X connect 40 0 38 0;
#X connect 41 0 36 1;
